<svg width="1209" height="197" viewBox="0 0 1209 197" fill="none" xmlns="http://www.w3.org/2000/svg">
<path d="M1099.38 125.461C1102.88 132.223 1106.79 138.096 1111.13 143.079C1115.63 148.061 1120.46 151.888 1125.63 154.557C1130.96 157.226 1136.54 158.561 1142.38 158.561C1148.54 158.561 1153.63 156.959 1157.63 153.756C1161.63 150.375 1163.63 145.837 1163.63 140.142C1163.63 135.337 1162.46 131.511 1160.13 128.664C1157.79 125.639 1154.04 122.791 1148.88 120.122C1143.71 117.453 1136.88 114.427 1128.38 111.046C1124.21 109.444 1119.38 107.22 1113.88 104.373C1108.54 101.525 1103.46 97.8772 1098.63 93.4282C1093.79 88.8013 1089.79 83.2845 1086.63 76.878C1083.46 70.2936 1081.88 62.3744 1081.88 53.1206C1081.88 42.0872 1084.54 32.5664 1089.88 24.5583C1095.38 16.5501 1102.71 10.4995 1111.88 6.4065C1121.21 2.1355 1131.54 0 1142.88 0C1154.54 0 1164.63 2.04652 1173.13 6.13957C1181.79 10.2326 1188.96 15.3934 1194.63 21.6219C1200.29 27.8505 1204.63 34.168 1207.63 40.5745L1175.38 59.794C1172.88 55.3451 1169.96 51.519 1166.63 48.3157C1163.46 44.9345 1159.88 42.3541 1155.88 40.5745C1152.04 38.617 1147.88 37.6382 1143.38 37.6382C1137.38 37.6382 1132.79 39.0619 1129.63 41.9092C1126.46 44.5786 1124.88 47.9598 1124.88 52.0529C1124.88 56.3239 1126.38 60.061 1129.38 63.2642C1132.54 66.4675 1136.96 69.4038 1142.63 72.0732C1148.46 74.7426 1155.46 77.5899 1163.63 80.6152C1169.79 83.1066 1175.54 86.0429 1180.88 89.4241C1186.21 92.6274 1190.88 96.5425 1194.88 101.169C1199.04 105.796 1202.29 111.135 1204.63 117.186C1206.96 123.236 1208.13 130.177 1208.13 138.007C1208.13 147.439 1206.29 155.892 1202.63 163.366C1199.13 170.662 1194.29 176.802 1188.13 181.785C1182.13 186.767 1175.21 190.505 1167.38 192.996C1159.71 195.665 1151.79 197 1143.63 197C1132.29 197 1121.71 194.865 1111.88 190.593C1102.21 186.145 1093.79 180.183 1086.63 172.709C1079.46 165.234 1073.88 157.048 1069.88 148.15L1099.38 125.461Z" fill="url(#paint0_linear_59_11)"/>
<path d="M930.627 125.461C934.127 132.223 938.044 138.096 942.377 143.079C946.877 148.061 951.71 151.888 956.877 154.557C962.21 157.226 967.794 158.561 973.627 158.561C979.794 158.561 984.877 156.959 988.877 153.756C992.877 150.375 994.877 145.837 994.877 140.142C994.877 135.337 993.71 131.511 991.377 128.664C989.044 125.639 985.294 122.791 980.127 120.122C974.96 117.453 968.127 114.427 959.627 111.046C955.46 109.444 950.627 107.22 945.127 104.373C939.794 101.525 934.71 97.8772 929.877 93.4282C925.044 88.8013 921.044 83.2845 917.877 76.878C914.71 70.2936 913.127 62.3744 913.127 53.1206C913.127 42.0872 915.794 32.5664 921.127 24.5583C926.627 16.5501 933.96 10.4995 943.127 6.4065C952.46 2.1355 962.794 0 974.127 0C985.794 0 995.877 2.04652 1004.38 6.13957C1013.04 10.2326 1020.21 15.3934 1025.88 21.6219C1031.54 27.8505 1035.88 34.168 1038.88 40.5745L1006.63 59.794C1004.13 55.3451 1001.21 51.519 997.877 48.3157C994.71 44.9345 991.127 42.3541 987.127 40.5745C983.294 38.617 979.127 37.6382 974.627 37.6382C968.627 37.6382 964.044 39.0619 960.877 41.9092C957.71 44.5786 956.127 47.9598 956.127 52.0529C956.127 56.3239 957.627 60.061 960.627 63.2642C963.794 66.4675 968.21 69.4038 973.877 72.0732C979.71 74.7426 986.71 77.5899 994.877 80.6152C1001.04 83.1066 1006.79 86.0429 1012.13 89.4241C1017.46 92.6274 1022.13 96.5425 1026.13 101.169C1030.29 105.796 1033.54 111.135 1035.88 117.186C1038.21 123.236 1039.38 130.177 1039.38 138.007C1039.38 147.439 1037.54 155.892 1033.88 163.366C1030.38 170.662 1025.54 176.802 1019.38 181.785C1013.38 186.767 1006.46 190.505 998.627 192.996C990.96 195.665 983.044 197 974.877 197C963.544 197 952.96 194.865 943.127 190.593C933.46 186.145 925.044 180.183 917.877 172.709C910.71 165.234 905.127 157.048 901.127 148.15L930.627 125.461Z" fill="url(#paint1_linear_59_11)"/>
<path fill-rule="evenodd" clip-rule="evenodd" d="M864.492 154.023H788.742V111.046H859.492V74.7427H788.742H748.242V191.128H776.242H788.742H864.492V154.023ZM788.742 41.3755H864.492V4.27112H788.742H776.242H748.242V41.3755H776.242H788.742Z" fill="url(#paint2_linear_59_11)"/>
<path fill-rule="evenodd" clip-rule="evenodd" d="M626.105 74.7427V191.128H668.355V74.7427H626.105Z" fill="url(#paint3_linear_59_11)"/>
<path d="M578.105 40.5746V4.27112H716.605V40.5746H578.105Z" fill="url(#paint4_linear_59_11)"/>
<path d="M446.105 125.461C449.605 132.223 453.522 138.096 457.855 143.079C462.355 148.061 467.189 151.888 472.355 154.557C477.689 157.226 483.272 158.561 489.105 158.561C495.272 158.561 500.355 156.959 504.355 153.756C508.355 150.375 510.355 145.837 510.355 140.142C510.355 135.337 509.189 131.511 506.855 128.664C504.522 125.639 500.772 122.791 495.605 120.122C490.439 117.453 483.605 114.427 475.105 111.046C470.939 109.444 466.105 107.22 460.605 104.373C455.272 101.525 450.189 97.8772 445.355 93.4282C440.522 88.8013 436.522 83.2845 433.355 76.878C430.189 70.2936 428.605 62.3744 428.605 53.1206C428.605 42.0872 431.272 32.5664 436.605 24.5583C442.105 16.5501 449.439 10.4995 458.605 6.4065C467.939 2.1355 478.272 0 489.605 0C501.272 0 511.355 2.04652 519.855 6.13957C528.522 10.2326 535.689 15.3934 541.355 21.6219C547.022 27.8505 551.355 34.168 554.355 40.5745L522.105 59.794C519.605 55.3451 516.689 51.519 513.355 48.3157C510.189 44.9345 506.605 42.3541 502.605 40.5745C498.772 38.617 494.605 37.6382 490.105 37.6382C484.105 37.6382 479.522 39.0619 476.355 41.9092C473.189 44.5786 471.605 47.9598 471.605 52.0529C471.605 56.3239 473.105 60.061 476.105 63.2642C479.272 66.4675 483.689 69.4038 489.355 72.0732C495.189 74.7426 502.189 77.5899 510.355 80.6152C516.522 83.1066 522.272 86.0429 527.605 89.4241C532.939 92.6274 537.605 96.5425 541.605 101.169C545.772 105.796 549.022 111.135 551.355 117.186C553.689 123.236 554.855 130.177 554.855 138.007C554.855 147.439 553.022 155.892 549.355 163.366C545.855 170.662 541.022 176.802 534.855 181.785C528.855 186.767 521.939 190.505 514.105 192.996C506.439 195.665 498.522 197 490.355 197C479.022 197 468.439 194.865 458.605 190.593C448.939 186.145 440.522 180.183 433.355 172.709C426.189 165.234 420.605 157.048 416.605 148.15L446.105 125.461Z" fill="url(#paint5_linear_59_11)"/>
<path d="M243.783 97.6992C243.783 108.733 245.783 118.52 249.783 127.062C253.95 135.426 259.7 142.011 267.033 146.816C274.533 151.621 283.283 154.023 293.283 154.023C303.117 154.023 311.7 151.621 319.033 146.816C326.533 142.011 332.283 135.426 336.283 127.062C340.45 118.52 342.533 108.733 342.533 97.6992C342.533 86.6658 340.533 76.967 336.533 68.603C332.533 60.061 326.867 53.3875 319.533 48.5826C312.2 43.7778 303.45 41.3753 293.283 41.3753C283.283 41.3753 274.533 43.7778 267.033 48.5826C259.7 53.3875 253.95 60.061 249.783 68.603C245.783 76.967 243.783 86.6658 243.783 97.6992ZM199.033 97.6992C199.033 83.2846 201.367 70.1156 206.033 58.1924C210.867 46.2692 217.533 35.9476 226.033 27.2276C234.533 18.5077 244.533 11.8342 256.033 7.20733C267.533 2.40245 279.95 0 293.283 0C306.783 0 319.2 2.40245 330.533 7.20733C342.033 11.8342 352.033 18.5077 360.533 27.2276C369.033 35.9476 375.617 46.2692 380.283 58.1924C384.95 70.1156 387.283 83.2846 387.283 97.6992C387.283 112.114 384.95 125.372 380.283 137.473C375.783 149.574 369.283 160.074 360.783 168.972C352.45 177.869 342.533 184.81 331.033 189.793C319.533 194.598 306.95 197 293.283 197C279.45 197 266.783 194.598 255.283 189.793C243.783 184.81 233.783 177.869 225.283 168.972C216.95 160.074 210.45 149.574 205.783 137.473C201.283 125.372 199.033 112.114 199.033 97.6992Z" fill="url(#paint6_linear_59_11)"/>
<path d="M11.75 112.915V72.3402H144.25V112.915H11.75ZM117.5 4.27112H159.75V191.128H117.5V4.27112ZM0 4.27112H42.25V191.128H0V4.27112Z" fill="url(#paint7_linear_59_11)"/>
<defs>
<linearGradient id="paint0_linear_59_11" x1="-18.5" y1="98.7669" x2="1218.5" y2="98.7669" gradientUnits="userSpaceOnUse">
<stop stop-color="#7600DD"/>
<stop offset="0.33" stop-color="#712FDD"/>
<stop offset="0.66" stop-color="#6C5EDE"/>
<stop offset="1" stop-color="#678EDF"/>
</linearGradient>
<linearGradient id="paint1_linear_59_11" x1="-18.5" y1="98.7669" x2="1218.5" y2="98.7669" gradientUnits="userSpaceOnUse">
<stop stop-color="#7600DD"/>
<stop offset="0.33" stop-color="#712FDD"/>
<stop offset="0.66" stop-color="#6C5EDE"/>
<stop offset="1" stop-color="#678EDF"/>
</linearGradient>
<linearGradient id="paint2_linear_59_11" x1="-18.5002" y1="98.7671" x2="1218.5" y2="98.7671" gradientUnits="userSpaceOnUse">
<stop stop-color="#7600DD"/>
<stop offset="0.33" stop-color="#712FDD"/>
<stop offset="0.66" stop-color="#6C5EDE"/>
<stop offset="1" stop-color="#678EDF"/>
</linearGradient>
<linearGradient id="paint3_linear_59_11" x1="-18.5" y1="98.7671" x2="1218.5" y2="98.7671" gradientUnits="userSpaceOnUse">
<stop stop-color="#7600DD"/>
<stop offset="0.33" stop-color="#712FDD"/>
<stop offset="0.66" stop-color="#6C5EDE"/>
<stop offset="1" stop-color="#678EDF"/>
</linearGradient>
<linearGradient id="paint4_linear_59_11" x1="-18.5" y1="98.7671" x2="1218.5" y2="98.7671" gradientUnits="userSpaceOnUse">
<stop stop-color="#7600DD"/>
<stop offset="0.33" stop-color="#712FDD"/>
<stop offset="0.66" stop-color="#6C5EDE"/>
<stop offset="1" stop-color="#678EDF"/>
</linearGradient>
<linearGradient id="paint5_linear_59_11" x1="-18.5" y1="98.7669" x2="1218.5" y2="98.7669" gradientUnits="userSpaceOnUse">
<stop stop-color="#7600DD"/>
<stop offset="0.33" stop-color="#712FDD"/>
<stop offset="0.66" stop-color="#6C5EDE"/>
<stop offset="1" stop-color="#678EDF"/>
</linearGradient>
<linearGradient id="paint6_linear_59_11" x1="-18.5" y1="98.7669" x2="1218.5" y2="98.7669" gradientUnits="userSpaceOnUse">
<stop stop-color="#7600DD"/>
<stop offset="0.33" stop-color="#712FDD"/>
<stop offset="0.66" stop-color="#6C5EDE"/>
<stop offset="1" stop-color="#678EDF"/>
</linearGradient>
<linearGradient id="paint7_linear_59_11" x1="-18.5" y1="98.7671" x2="1218.5" y2="98.7671" gradientUnits="userSpaceOnUse">
<stop stop-color="#7600DD"/>
<stop offset="0.33" stop-color="#712FDD"/>
<stop offset="0.66" stop-color="#6C5EDE"/>
<stop offset="1" stop-color="#678EDF"/>
</linearGradient>
</defs>
</svg>
